<?xml version="1.0" encoding="UTF-8"?>
<svg id="Layer_1" xmlns="http://www.w3.org/2000/svg" version="1.1" viewBox="0 0 512 512">
  <!-- Generator: Adobe Illustrator 30.1.0, SVG Export Plug-In . SVG Version: 2.1.1 Build 136)  -->
  <defs>
    <style>
      .st0 {
        fill: #2563eb;
      }

      .st1 {
        fill: #fff;
      }

      .st2 {
        stroke-width: 27.2px;
      }

      .st2, .st3, .st4 {
        fill: none;
        stroke: #fff;
        stroke-linecap: round;
        stroke-linejoin: round;
      }

      .st3 {
        stroke-width: 24px;
      }

      .st4 {
        stroke-width: 26px;
      }
    </style>
  </defs>
  <rect class="st0" x="-.3" width="512" height="512"/>
  <g>
    <path class="st2" d="M158.7,140.3l-33.9-56.6"/>
    <path class="st2" d="M353.3,140.3l33.9-56.6"/>
    <path class="st3" d="M179.2,72.4h34.1l19.9-20.4,25.6,45.3,25.6-33.9,17.1,9.1h31.3"/>
    <rect class="st2" x="90.8" y="151.6" width="330.4" height="282.9" rx="78" ry="78"/>
    <path class="st2" d="M90.8,226.3c-31.7,11.3-31.7,122.2,0,133.5"/>
    <path class="st2" d="M421.2,226.3c31.7,11.3,31.7,122.2,0,133.5"/>
  </g>
  <circle class="st1" cx="387.3" cy="83.7" r="23.3"/>
  <g>
    <g>
      <rect class="st4" x="135.5" y="245.9" width="122.9" height="53.5" rx="6" ry="6"/>
      <path class="st4" d="M197,211.2v122.9"/>
    </g>
    <g>
      <path class="st4" d="M279.8,359.8l47.8-137.6,47.8,137.6"/>
      <path class="st4" d="M297.7,320.9h59.8"/>
    </g>
  </g>
  <circle class="st1" cx="124.7" cy="81" r="23.3"/>
</svg>